# 
# 
mtllib sword.mtl
v -0.003247 0.442643 0.045380
v 0.000135 0.505263 0.031452
v -0.003225 0.405929 0.028666
v -0.001514 0.338740 0.222891
v -0.001514 0.492200 0.214404
v 0.005333 1.877227 -0.161415
v 0.021174 1.782051 -0.068860
v -0.020904 1.782051 -0.068860
v 0.030641 1.575219 0.045380
v -0.030372 1.575219 0.045380
v 0.010304 0.424420 -0.135680
v -0.030372 0.476486 -0.068827
v 0.030641 0.476486 -0.068827
v 0.010304 0.411403 -0.110610
v 0.030641 0.424420 -0.046543
v -0.030372 0.424420 -0.046543
v 0.030641 1.377369 0.092734
v -0.030372 1.377369 0.092734
v 0.030641 1.070179 0.089948
v -0.030372 1.070179 0.089948
v 0.030641 0.869725 0.046456
v -0.030372 0.869725 0.046456
v 0.030641 0.648445 -0.040972
v -0.030372 0.648445 -0.040972
v 0.030641 0.578156 -0.063256
v -0.030372 0.578156 -0.063256
v 0.000135 1.845963 -0.066041
v 0.012106 1.785760 -0.035309
v 0.000135 1.791294 0.014739
v 0.018382 1.611687 0.087401
v 0.000135 1.642905 0.123375
v 0.000135 1.458071 0.209726
v 0.018338 1.427796 0.165838
v 0.000135 1.231735 0.261940
v 0.018283 1.188706 0.216131
v 0.000135 0.886846 0.307007
v 0.018297 0.881805 0.223419
v 0.000135 0.874932 0.271008
v 0.000135 0.820262 0.209726
v 0.021014 0.831193 0.169953
v 0.000135 0.726544 0.154015
v 0.020973 0.757848 0.130499
v 0.019921 0.600362 0.106726
v 0.000135 0.557329 0.131731
v 0.000135 0.557329 0.078806
v 0.000135 0.549519 0.045380
v 0.036300 0.070071 -0.003282
v 0.000000 0.084677 0.075044
v 0.036300 0.041760 0.037010
v 0.000000 0.091120 0.013758
v 0.036300 0.128944 -0.045257
v 0.000000 0.130985 -0.010621
v 0.036300 0.242471 -0.056901
v 0.000000 0.242067 -0.030075
v 0.036300 0.363674 -0.031431
v 0.000000 0.357508 0.014022
v 0.036300 0.407639 -0.022413
v 0.000000 0.407179 0.012586
v 0.000000 0.421906 -0.008676
v 0.000000 0.408100 -0.057455
v 0.000000 0.422826 -0.037443
v 0.015382 0.422347 -0.022469
v 0.000000 0.047861 -0.021263
v 0.000000 0.000000 0.000000
v 0.000000 0.126383 -0.076533
v 0.000000 0.242987 -0.100990
v 0.000000 0.368162 -0.057455
v -0.036300 0.070071 -0.003282
v -0.036300 0.041760 0.037010
v -0.036300 0.128944 -0.045257
v -0.036300 0.242471 -0.056901
v -0.036300 0.363674 -0.031431
v -0.036300 0.407639 -0.022413
v -0.015381 0.422347 -0.022469
v 0.000135 0.632825 0.134517
v -0.011837 1.785760 -0.035309
v -0.018112 1.611687 0.087401
v -0.010034 0.424420 -0.135680
v -0.010034 0.411403 -0.110610
v -0.018069 1.427796 0.165838
v -0.018014 1.188706 0.216131
v -0.018028 0.881805 0.223419
v -0.020745 0.831193 0.169953
v -0.020704 0.757848 0.130499
v -0.019652 0.600362 0.106726
v 0.003495 0.405929 0.028666
vt 0.110550 0.793100
vt 0.382882 0.872379
vt 0.100406 0.978426
vt 0.416073 0.959353
vt 0.350741 0.143505
vt 0.342496 0.344911
vt 0.425290 0.309107
vt 0.456691 0.435154
vt 0.370734 0.479116
vt 0.322908 0.312971
vt 0.388390 0.328336
vt 0.466683 0.452191
vt 0.384558 0.487424
vt 0.201925 0.377529
vt 0.237930 0.419306
vt 0.230703 0.362406
vt 0.308897 0.308486
vt 0.406450 0.219419
vt 0.287365 0.233724
vt 0.400169 0.148512
vt 0.286351 0.167071
vt 0.252974 0.409643
vt 0.263785 0.017408
vt 0.385712 0.013453
vt 0.457608 0.080664
vt 0.552511 0.106504
vt 0.609879 0.196742
vt 0.656179 0.190967
vt 0.675017 0.980879
vt 0.561168 0.860677
vt 0.621245 0.989133
vt 0.520361 0.949435
vt 0.823432 0.432966
vt 0.534155 0.238153
vt 0.776921 0.442258
vt 0.917879 0.649194
vt 0.653633 0.487800
vt 0.867523 0.688789
vt 1.000280 0.992036
vt 0.711142 0.811581
vt 0.913862 0.986038
vt 0.053073 0.234332
vt 0.098124 0.257946
vt 0.149945 0.234246
vt 0.175669 0.338206
vt 0.231593 0.298334
vt 0.254485 0.498011
vt 0.420810 0.238055
vt 0.295230 0.439730
vt 0.538553 0.689664
vt 0.314484 0.669798
vt 0.255087 0.729831
vt 0.362844 0.758900
vt 0.402985 0.792620
vt 0.409585 0.810466
vt 0.566291 0.797785
vt 0.563830 0.776851
vt 0.395625 0.806729
vt 0.400405 0.879672
vt 0.400503 0.949045
vt 0.410542 0.779871
vt 0.124686 0.624098
vt 0.207641 0.699420
vt 0.122087 0.698224
vt 0.193473 0.624663
vt 0.906736 0.121853
vt 0.973420 0.371040
vt 0.897633 0.370475
vt 0.973594 0.120906
vt 0.907740 0.354319
vt 0.973733 0.351639
vt 0.892316 0.174403
vt 0.973836 0.179420
vt 0.898869 0.062265
vt 0.982648 0.064501
vt 0.953404 0.017052
vt 0.814986 0.060026
vt 0.852883 0.014992
vt 0.905210 0.016064
vt 0.052105 0.623502
vt 0.038838 0.697061
vt 0.825328 0.123041
vt 0.825232 0.369879
vt 0.824269 0.357743
vt 0.826286 0.170751
vt 0.166104 0.761721
vt 0.114302 0.710617
vt 0.114302 0.812826
vt 0.063895 0.761721
vt 0.712632 0.990945
vt 0.395676 0.075572
vt 0.270115 0.607092
vn -0.999939 0.000549 0.010071
vn -0.994507 -0.039003 0.096896
vn -0.999939 -0.001709 0.008759
vn 0.643849 -0.744346 0.177068
vn 0.009857 0.955657 -0.294259
vn 0.627247 -0.381298 -0.679067
vn -0.816950 -0.255989 -0.516709
vn 0.876980 -0.113590 -0.466842
vn -0.878719 -0.170354 -0.445845
vn 0.723258 0.420667 -0.547624
vn -0.906156 0.104099 -0.409894
vn 0.966674 0.100009 -0.235603
vn 0.819971 -0.566179 -0.084078
vn 0.812220 -0.574908 0.098666
vn -0.812220 -0.574908 0.098666
vn 0.753990 -0.038270 -0.655751
vn -0.754234 -0.099612 -0.648976
vn 0.739128 0.103702 -0.665487
vn -0.739280 0.053499 -0.671224
vn 0.829035 0.175451 -0.530900
vn -0.828944 0.143132 -0.540666
vn 0.892148 0.039186 -0.449995
vn -0.893368 0.051271 -0.446364
vn 0.617878 0.101779 -0.779626
vn -0.617878 0.181066 -0.765099
vn -0.020386 0.887204 0.460891
vn 0.953032 0.234687 0.191290
vn 0.000000 0.700583 0.713553
vn 0.955779 0.152867 0.251137
vn 0.000000 0.508103 0.861263
vn 0.000000 0.349254 0.937010
vn 0.967559 0.071108 0.242286
vn 0.000000 0.186743 0.982391
vn 0.979369 0.024445 0.200537
vn 0.000000 -0.602680 0.797937
vn 0.973357 -0.158483 0.165532
vn 0.000000 -0.830653 0.556780
vn 0.000000 -0.642232 0.766472
vn 0.938597 -0.203833 0.278268
vn 0.000000 -0.388714 0.921354
vn 0.940825 -0.094485 0.325388
vn 0.940947 -0.203253 0.270699
vn 0.000000 -0.593219 0.805017
vn 0.000000 -0.999969 -0.000702
vn 0.000000 -0.443800 0.896115
vn 0.439344 -0.042573 0.897275
vn 0.982116 0.048280 -0.181890
vn 0.000000 0.776513 0.630085
vn 0.759453 -0.589801 0.274453
vn 0.000000 0.773888 0.633259
vn 0.997864 0.065127 0.000336
vn 0.000000 0.271645 0.962371
vn 0.993683 0.090793 0.065706
vn 0.000000 -0.114872 0.993378
vn 0.995422 -0.050752 -0.080752
vn 0.000000 -0.169134 0.985565
vn 0.827876 0.492965 0.267525
vn 0.000000 0.520585 0.853786
vn 0.000000 0.799463 0.600665
vn 0.000000 0.519120 -0.854671
vn 0.000000 0.805414 -0.592669
vn 0.573931 0.799585 -0.176702
vn 0.000000 -0.633320 -0.773858
vn 0.000000 -0.963683 -0.266976
vn 0.000000 -0.466628 -0.884426
vn 0.000000 -0.002777 -0.999969
vn 0.000000 0.169164 -0.985565
vn -0.982116 0.048280 -0.181890
vn -0.759453 -0.589801 0.274453
vn -0.997864 0.065127 0.000336
vn -0.993683 0.090793 0.065706
vn -0.995422 -0.050752 -0.080752
vn -0.827876 0.492965 0.267495
vn -0.573931 0.799585 -0.176702
vn 0.000000 -0.132847 0.991119
vn -0.956389 0.238533 0.168462
vn -0.955779 0.152867 0.251137
vn -0.966826 -0.226569 -0.117649
vn -0.964476 -0.173681 -0.198920
vn -0.967559 0.071108 0.242286
vn -0.979369 0.024445 0.200537
vn -0.973357 -0.158483 0.165532
vn -0.938597 -0.203833 0.278268
vn -0.940825 -0.094485 0.325388
vn -0.940947 -0.203253 0.270699
vn -0.914823 -0.042177 0.401563
usemtl The_Prince_sword
s 1
f 5/1/1 1/2/2 4/3/3
f 1/2/2 3/4/4 4/3/3
f 6/5/5 7/6/6 8/7/7
f 7/7/6 9/8/8 10/9/9
f 10/9/9 8/10/7 7/7/6
f 11/11/10 12/12/11 13/13/12
f 14/14/13 15/15/14 16/16/15
f 9/7/8 17/8/16 18/9/17
f 18/9/17 10/10/9 9/7/8
f 17/7/16 19/8/18 20/9/19
f 20/9/19 18/10/17 17/7/16
f 19/7/18 21/8/20 22/9/21
f 22/9/21 20/10/19 19/7/18
f 21/8/20 23/7/22 24/17/23
f 24/17/23 22/9/21 21/8/20
f 23/7/22 25/18/24 26/19/25
f 26/19/25 24/17/23 23/7/22
f 25/18/24 13/20/12 12/21/11
f 12/21/11 26/19/25 25/18/24
f 3/22/4 16/16/15 15/15/14
f 6/23/5 27/24/26 28/25/27
f 27/24/26 29/26/28 28/25/27
f 28/25/27 29/26/28 30/27/29
f 29/26/28 31/28/30 30/27/29
f 11/29/10 13/30/12 14/31/13
f 14/31/13 13/30/12 15/32/14
f 31/28/30 32/33/31 30/27/29
f 9/34/8 30/27/29 33/35/32
f 32/33/31 34/36/33 33/35/32
f 17/37/16 33/35/32 35/38/34
f 34/36/33 36/39/35 35/38/34
f 19/40/18 35/38/34 37/41/36
f 36/42/35 38/43/37 37/44/36
f 38/43/37 39/45/38 40/46/39
f 39/45/38 41/47/40 40/46/39
f 21/48/20 42/49/41 23/50/22
f 42/49/41 43/51/42 23/50/22
f 44/52/43 45/53/44 43/51/42
f 43/51/42 45/53/44 23/50/22
f 45/53/44 46/54/45 23/50/22
f 23/50/22 46/55/45 25/56/24
f 25/57/24 46/58/45 13/30/12
f 46/58/45 2/59/46 13/30/12
f 13/30/12 2/59/46 15/32/14
f 15/32/14 2/59/46 3/60/4
f 2/61/46 1/2/2 3/4/4
f 47/62/47 48/63/48 49/64/49
f 47/62/47 50/65/50 48/63/48
f 51/66/51 50/67/50 47/68/47
f 51/66/51 52/69/52 50/67/50
f 53/70/53 52/69/52 51/66/51
f 53/70/53 54/71/54 52/69/52
f 55/72/55 54/71/54 53/70/53
f 55/72/55 56/73/56 54/71/54
f 57/74/57 56/73/56 55/72/55
f 57/74/57 58/75/58 56/73/56
f 57/74/57 59/76/59 58/75/58
f 60/77/60 61/78/61 62/79/62
f 63/80/63 49/64/49 64/81/64
f 65/82/65 47/68/47 63/83/63
f 63/80/63 47/62/47 49/64/49
f 66/84/66 51/66/51 65/82/65
f 65/82/65 51/66/51 47/68/47
f 67/85/67 53/70/53 66/84/66
f 66/84/66 53/70/53 51/66/51
f 60/77/60 55/72/55 67/85/67
f 67/85/67 55/72/55 53/70/53
f 62/79/62 59/76/59 57/74/57
f 60/77/60 57/74/57 55/72/55
f 60/77/60 62/79/62 57/74/57
f 68/62/68 69/64/69 48/63/48
f 68/62/68 48/63/48 50/65/50
f 70/66/70 68/68/68 50/67/50
f 70/66/70 50/67/50 52/69/52
f 71/70/71 70/66/70 52/69/52
f 71/70/71 52/69/52 54/71/54
f 72/72/72 71/70/71 54/71/54
f 72/72/72 54/71/54 56/73/56
f 73/74/73 72/72/72 56/73/56
f 73/74/73 56/73/56 58/75/58
f 73/74/73 58/75/58 59/76/59
f 60/77/60 74/79/74 61/78/61
f 63/80/63 64/81/64 69/64/69
f 65/82/65 63/83/63 68/68/68
f 63/80/63 69/64/69 68/62/68
f 66/84/66 65/82/65 70/66/70
f 65/82/65 68/68/68 70/66/70
f 67/85/67 66/84/66 71/70/71
f 66/84/66 70/66/70 71/70/71
f 60/77/60 67/85/67 72/72/72
f 67/85/67 71/70/71 72/72/72
f 74/79/74 73/74/73 59/76/59
f 60/77/60 72/72/72 73/74/73
f 60/77/60 73/74/73 74/79/74
f 48/86/48 69/87/69 49/88/49
f 49/88/49 69/87/69 64/89/64
f 37/44/36 38/43/37 40/46/39
f 19/40/18 37/41/36 21/90/20
f 35/38/34 36/39/35 37/41/36
f 17/37/16 35/38/34 19/40/18
f 33/35/32 34/36/33 35/38/34
f 9/34/8 33/35/32 17/37/16
f 30/27/29 32/33/31 33/35/32
f 28/25/27 30/27/29 9/34/8
f 7/91/6 28/25/27 9/34/8
f 6/23/5 28/25/27 7/91/6
f 40/46/39 42/49/41 21/48/20
f 37/44/36 40/46/39 21/48/20
f 40/46/39 41/47/40 42/49/41
f 42/49/41 41/47/40 75/92/75
f 42/49/41 75/92/75 43/51/42
f 75/92/75 44/52/43 43/51/42
f 6/23/5 76/25/76 27/24/26
f 27/24/26 76/25/76 29/26/28
f 76/25/76 77/27/77 29/26/28
f 29/26/28 77/27/77 31/28/30
f 78/29/78 79/31/79 12/30/11
f 79/31/79 16/32/15 12/30/11
f 31/28/30 77/27/77 32/33/31
f 10/34/9 80/35/80 77/27/77
f 32/33/31 80/35/80 34/36/33
f 18/37/17 81/38/81 80/35/80
f 34/36/33 81/38/81 36/39/35
f 20/40/19 82/41/82 81/38/81
f 36/42/35 82/44/82 38/43/37
f 38/43/37 83/46/83 39/45/38
f 39/45/38 83/46/83 41/47/40
f 22/48/21 24/50/23 84/49/84
f 84/49/84 24/50/23 85/51/85
f 44/52/43 85/51/85 45/53/44
f 85/51/85 24/50/23 45/53/44
f 45/53/44 24/50/23 46/54/45
f 24/50/23 26/56/25 46/55/45
f 26/57/25 12/30/11 46/58/45
f 46/58/45 12/30/11 2/59/46
f 12/30/11 16/32/15 2/59/46
f 16/32/15 86/60/86 2/59/46
f 82/44/82 83/46/83 38/43/37
f 20/40/19 22/90/21 82/41/82
f 81/38/81 82/41/82 36/39/35
f 18/37/17 20/40/19 81/38/81
f 80/35/80 81/38/81 34/36/33
f 10/34/9 18/37/17 80/35/80
f 77/27/77 80/35/80 32/33/31
f 76/25/76 10/34/9 77/27/77
f 8/91/7 10/34/9 76/25/76
f 6/23/5 8/91/7 76/25/76
f 83/46/83 22/48/21 84/49/84
f 82/44/82 22/48/21 83/46/83
f 83/46/83 84/49/84 41/47/40
f 84/49/84 75/92/75 41/47/40
f 84/49/84 85/51/85 75/92/75
f 75/92/75 85/51/85 44/52/43
